<svg xmlns="http://www.w3.org/2000/svg" fill="none" viewBox="0 0 500 500"><path fill="#CC2027" d="M0 0h500v500H0z"/><path fill="#fff" d="m351.514 107.146 7.342-26.197a73.692 73.692 0 0 0 2.185-8.266c.612-3.93 2.564-5.21 6.556-5.152 12.702.233 25.434.175 38.137 0 3.176 0 4.225.902 4.225 4.162v130.691c0 3.376-.932 4.482-4.37 4.453a1920.887 1920.887 0 0 0-44.781 0c-2.914 0-3.7-1.368-4.487-3.667a223.135 223.135 0 0 0-23.308-50.646 86.237 86.237 0 0 0-40.643-36.588 75.013 75.013 0 0 0-40.925-5.727 74.969 74.969 0 0 0-37.74 16.817 80.133 80.133 0 0 0-22.755 33.357 233.53 233.53 0 0 0-13.344 88.601 221.837 221.837 0 0 0 10.139 71.633 92.594 92.594 0 0 0 31.525 46.571 85.768 85.768 0 0 0 46.354 16.183 85.428 85.428 0 0 0 53.375-11.905 91.694 91.694 0 0 0 33.651-39.789 152.866 152.866 0 0 0 12.849-43.049c.291-2.008.728-3.347 3.234-3.347h45.946c.682.096 1.355.252 2.01.465-.466 4.279-.757 8.5-1.427 12.662a188.465 188.465 0 0 1-22.347 66.655 129.027 129.027 0 0 1-33.45 38.723 129.186 129.186 0 0 1-45.885 22.693 199.77 199.77 0 0 1-106.897-.291 156.811 156.811 0 0 1-58.997-28.692 156.615 156.615 0 0 1-42.072-50.305A193 193 0 0 1 83.5 260.22a208.63 208.63 0 0 1 12.761-81.238 177.763 177.763 0 0 1 43.703-66.946 156.23 156.23 0 0 1 67.302-38.858 150.76 150.76 0 0 1 113.073 9.576 96.612 96.612 0 0 1 27.242 21.568 38.14 38.14 0 0 1 2.476 3.435l1.457-.611z"/></svg>