<svg id="Layer_1" data-name="Layer 1" xmlns="http://www.w3.org/2000/svg" viewBox="0 0 857.63 629.67"><defs><style>.cls-2{fill:#646a78}.cls-3{fill:#b49b5c}.cls-4{fill:#cdd4ea}.cls-5{fill:#fff}</style></defs><path d="M570.56 57.56c19.4 0 25.53-.26 30.89-1s11.24 2.8 11.24 2.8v30.11s-15.58 78.13-16.6 104.17-24.81 215.83-26.81 229.79c-2.36 16.53 1.34 13.4-2.36 16.53-.38.32-5-.7-6.06-2.49s-.26 11.91 1.82 19c2.61 8.9 1.72 8-.29 13.47-1.08 2.92-6.64 7.66-8.17 9.44s-14-13.13-15.58-15.24-8.68 3.75-9.95 7.33-2.3 16.08-7.92 16.85-26 0-27.32-3.32-5.36-6.64-7.66-5.87-8.68 8-8.17 9.46 6.64 5.35 7.41 9.94-3.83 4.85-2.81 7.66 2.3 6.64-.26 8.17-7.66 3.07-13.53 13.53-7.91 11.24-9.45 13-4.34 4.34-6.89 2.8-6.64-6.63-7.91-4.59-1.54 4.51-2.56 5.06.26 2.34-1.72 4.32.45 6.58 2.55 8.17-6.27 20.65-19.81 28.35c-1.78 1.28-14.89 1.19-15.83.77s-9.7-9.79-11.32-11.92-2.89-1.53-4.17-1.61-2.63 2.46-3.4 3-3.19-.42-4.62-2c-.49-.54.92-5.47-.66-6.45-.89-.56-.28-1-1.19-1.34-2.21-.73-6.1-.58-8.68-.31-.63.06-2.73 1.64-3.69 2.47-.48.42-2.59-.17-2.52 3.35a22.89 22.89 0 0 1-3.32 12.93c-2.64 4.26-11.06 12.77-12 14.3s1.34 4.89 0 5.7c-.52.32-3 2.44-3.72 2.87a43.39 43.39 0 0 1-5.16 0c-2.53-.16-2.48-.07-2.78-1s-4.47.32-4.6.76c-.51 1.88 0 4.36-2.29 6.3-5.87 5-13 8.7-13.81 9.41s-12.29-9.55-13.76-10.76c-.7.54-3.33-.09-3.24.63.55 4.76-2.47 6.34-7.74 10.7-3.73.1-8.84.51-10.43-.19s-9-7.88-9.42-10.47a26.41 26.41 0 0 1-.54-5.23 15.22 15.22 0 0 0-8.2 3.31c-.83.76-3.86-2-4.31-8.39-2.23-2.85-5.2-1.18-6.7-1.79-2.9-1.17-7.34-5.84-8.75-6.51s-2.23 1.31-3.92 5.72-5.17 13.31-5.81 17.52-1.53 6.32-2 9.6c-1.31-.12-5.19-4.23-8.77-5.09-5.38-1.29-9.64-8.35-14-14.69-2.66.44-4.74 1.72-5.38 3.68-.76 2.32-2 2.78-4.1 6.11-1.82-.73-1.15-.47-3.56-3.47 0 0-11.28 11.13-10.67 16.27-5.62.45-6.64.91-7 0a2.88 2.88 0 0 0-1.3-1.5c-1.59-6.89-1.63-7.41-1.63-7.41s2-1 1.75-2.23-7.82-15.83-8.49-17.64-.06-5.53 0-6.55c11.74-14.07 21.51-31.18 23.81-31.16.51-.68.59-1.78-.77-6.81s-.59-11.4-.51-13.7 8.26-9 10-10.55c0 0 4.94 1.45 11.66-3.15s3.4-3.74 4.77-4.85 21-14.47 22-17.11a52.09 52.09 0 0 0 2.72-18.64c7.49-8.34 12.85-6.46 15.41-10.29-.6-4.26-.32-12.07-5.35-14.36s-10.36-6-11.8-7.73a34.73 34.73 0 0 1 .57-10.59s4.49-4.43 5.94-6.13c.25-3.3-1.07-2.62-3.74-3.57a2.2 2.2 0 0 1-1.47-1.69 19.21 19.21 0 0 0-1.19-4.33 1.73 1.73 0 0 1 .1-1.64 23.26 23.26 0 0 1 8.25-7.41c.86-5.79.09-14 .34-15.4 3.41-4.68 8.09-11.75 10.81-13.45s5.79-.77 7.32-2.55-.59-4.26-2.47-5.28c.77-4.77 3.07-2.47 3.15-8.85s24-200.85 35.58-289c5.1 4.08 6.72.76 7.91-.09-1.95-4.3-3.66-5.1-4.12-8.59 3.44-.81 3.1.17 4.12.34 6.6 3.1 14.64 6 22.17 5.87 9.19-2.21 60.13-23 65.24-23.32s11.4 1.79 15.57-.34 8-7.92 9.7-10.21c3.58 7.15 32.6 10.38 53.11 9.87 23.92-.82 90.82-1.58 90.82-1.58Z" style="fill:#777b82"/><path class="cls-2" d="M491.67 146.75a10.86 10.86 0 0 1-1.16-2.21 9 9 0 0 0-1.41-2.13 23.55 23.55 0 0 1-2.16-3.1c-.36-.74-.59-1.52-1-2.26-.76-1.32-1.93-3.45-3.55-3.84-1-.24-2 .37-3.06.67-1.85.55-4.45 0-6.36-.21-2.48-.26-4.94-.7-7.41-1.09a197.41 197.41 0 0 0-64.67.49C390 135 379 137.82 367.93 137a2.2 2.2 0 0 0-2.48 1.52A11.49 11.49 0 0 0 378 152.61c1.93-.22 3.84-1 5.8-.93s3.63.21 5.49.16c3.54-.09 7.08-.3 10.62-.57 1.61-.12 3.21.55 4.79.39 1.42-.14 2.81-.35 4.26-.42.75 0 1.54 0 2.29-.11a22.24 22.24 0 0 1 3.64.1 51.17 51.17 0 0 0 7.83-.15c15.82-2 32-.18 47.94-.32a8 8 0 0 1 2.84.32c1.57.59 2.52 1.53 4.28 1.5 1.57 0 3.38-.53 4.78.46 2.11 1.49 1.38 5.15 3.36 6.8s4.7.28 6.74-1.08a5.55 5.55 0 0 0 1.7-1.53c1.12-1.79-.1-3.47-.62-5.19a22.67 22.67 0 0 0-2.07-5.29ZM382.94 186.19c-.59 2.14-1.74 4.23-2 6.42a35.07 35.07 0 0 1-1.83 6.27c-.4 1.23-1.18 2.44-1.44 3.66a17 17 0 0 0 .35 6.1c.21 1.33 1.42 2.22 2.52 2.92s1.93 1.8 3 2.35c.9.45 2-.06 2.87-.42 1.35-.54 2.16-2.24 2.94-3.44a48.73 48.73 0 0 0 4.31-7.14c.36-.84.74-1.67 1.06-2.52 1.48-4 1.47-8.32 1.57-12.52a43.82 43.82 0 0 1 .45-6.37c.34-2-.2-4.08-.49-6.07a26 26 0 0 0-2-7.8 27.46 27.46 0 0 0-4.31-5.81c-1.91-2.17-5.68-6.09-8-2.19a4.33 4.33 0 0 0-.76 2.86 7.35 7.35 0 0 0 1.51 2 9.75 9.75 0 0 1 2 3.94c.84 3.15 1.27 6.52.23 9.62-.87 2.66-1.23 5.46-1.98 8.14ZM456.6 163.4c-.89-.79-2-2.28-3.33-1.8-3 1.07-5 4.32-6.57 6.85l-2.43 3.93a77.26 77.26 0 0 0-9 22.08 5.1 5.1 0 0 0-.21 1.6 7 7 0 0 0 .87 2.28 10.15 10.15 0 0 1 .59 2.08c.13.52 1.19 2.43 2 2.11l-.22.09c.23.17.53-.12.65-.38a9.42 9.42 0 0 0 .68-3.55 11.56 11.56 0 0 1 .94-3.07c.7-1.84 1.9-3.21 2.82-4.93 1.17-2.21 1.74-4.68 2.94-6.88.31-.56 1.33-1.8 1.33-2.42l5.18-9.46c.57-1 1.13-2.08 1.71-3.11.76-1.34 3.63-2.65 2.87-4.48a2.78 2.78 0 0 0-.82-.94ZM377.15 107.44a23.75 23.75 0 0 0 .42 5.26 19.54 19.54 0 0 0 2.34 5.41 10 10 0 0 0 1.24 2.13 4.71 4.71 0 0 0 2.14.73l1 .24a4 4 0 0 1 1.92.87 2 2 0 0 0 .57.53c.53.25 1.1-.19 1.57-.54a31.76 31.76 0 0 0 2.79-1.82 17 17 0 0 0 2.77-2.86 5.4 5.4 0 0 0 .95-4.33c-.13-.51-3.66-.14-4.12-.14-1.42 0-1.73-.41-2.65-1.26a2.39 2.39 0 0 0-1.84-.73h-.85c-1.26 0-1.08-.85-1.42-1.74s-1.08-1.18-1.28-2c-.28-1.16.06-2.8 0-4-.07-1.39-.18-2.78-.17-4.17a12.31 12.31 0 0 0-1.31-5.2c-.67-1.62-1.48-1.64-3.19-1.87-.21 0-2.46-.13-2.47-.17 1.5 2.56 1.56 5.68 1.58 8.65-.02 2.37-.01 4.69.01 7.01ZM394 102.33a69.51 69.51 0 0 0 3 8.63c.83 2.1 1.73 4.28 3.41 5.78.36.32.79.52 1.15.81s.53.74 1 .94c.19.09.4.13.59.21s.55.4.85.54a11.2 11.2 0 0 0 1.67.31 4.75 4.75 0 0 0 1.5.14c.74-.07 1.3-.51 2-.62l.58-.09a.65.65 0 0 0 .2 0 .66.66 0 0 0 .23-.24c.88-1.34 1.7-3.1 1.15-4.71-.43-1.26-1.32-1.93-2-3s-.63-2.28-1.16-3.41a7.54 7.54 0 0 0-1.87-2.12c-1.82-1.71-1.72-4.56-1.2-6.87.23-1 .61-2 .8-3 .26-1.36.2-2.78.52-4.14a13.57 13.57 0 0 1 1.26-3c1.37-2.63 2.9-5.17 4.51-7.66.82-1.27 1.66-2.52 2.51-3.77a17.86 17.86 0 0 0 1.88-3.76 13.15 13.15 0 0 1 1.08-2.3 15.22 15.22 0 0 1 1.13-1.51c1.51-1.89 2.85-3.91 4.18-5.93a28.44 28.44 0 0 0 2.94-5.24c0-.09.07-.19.11-.29a9 9 0 0 0 .32-5.48 6.2 6.2 0 0 0-.56-1.67.34.34 0 0 0-.21-.2.27.27 0 0 0-.21 0 2.77 2.77 0 0 0-1 1.32c-.55 1.12-1.13 2.22-1.74 3.31-.32.55-.63 1.1-1 1.65a6.26 6.26 0 0 1-.92 1.04 29.42 29.42 0 0 1-5.32 4.51 39.14 39.14 0 0 0-4.54 2.89 45.31 45.31 0 0 0-6 5.82c-.61.77-.91 1.7-1.55 2.49-.86 1.07-1.81 2.07-2.64 3.16-.7.93-1.14 2-1.83 2.93a41.81 41.81 0 0 0-2.82 3.64 24 24 0 0 0-2.76 14.38c.27 1.51.41 3.01.76 4.51ZM426.68 86c.48 2.2 1 4.41 1.45 6.62.2.93.41 1.85.68 2.75a16.27 16.27 0 0 1 .58 2.18 13.28 13.28 0 0 1 0 2.36 31.11 31.11 0 0 0 .91 8.7 5.73 5.73 0 0 0 .37 1.08c.22.45.56.84.82 1.27.72 1.18.86 2.68 1.76 3.74a8.32 8.32 0 0 1 1.32 1.47c.2.39.25.84.45 1.23.5.93 1.7 1.24 2.38 2.05a3.91 3.91 0 0 1 .34.49 4.41 4.41 0 0 0 .44.6c.91 1 2.22.63 3.37.46s1.45-.66 2.29-1.52a2.84 2.84 0 0 1 1-.51 2.75 2.75 0 0 0 1.33-1.19 1.11 1.11 0 0 0 .17-.53.6.6 0 0 0-.2-.5 2 2 0 0 0-.4-.17c-1.39-.52-1.08-3.61-1.21-4.8a5.45 5.45 0 0 0-.22-1.27 7 7 0 0 0-.5-1.07c-.24-.45-.46-.92-.68-1.38a41 41 0 0 1-2.32-5.52c-.38-1.22-.65-2.48-.91-3.73a18.52 18.52 0 0 1-.4-2.44 32.94 32.94 0 0 1 .19-4.09c.07-1.24-.1-2.43-.14-3.66a5.59 5.59 0 0 1 1-2.59 45.35 45.35 0 0 1 4.07-6.2l10.58-14.34c4.54-6.14 9.11-12.33 14.8-17.49a64.35 64.35 0 0 1 11.17-8.09c2-1.16 4.1-2.23 6.07-3.48a8.48 8.48 0 0 0 2-1.42c.55-.63.94-1.37 1.55-2 2.5-2.46 5.94-3.71 8.46-6.16 1.61-1.57 2.74-3.59 4.45-5.08a12.8 12.8 0 0 0 2.06-1.66A12.11 12.11 0 0 0 507 16.6a6.75 6.75 0 0 0 .32-1.25 6.92 6.92 0 0 0-.1-1.87l-.45-3a.48.48 0 0 0-.17-.36.41.41 0 0 0-.31 0 4.79 4.79 0 0 0-2.37.76 15.83 15.83 0 0 0-1.84 2.12c-2.73 3.15-5.23 6.58-9.3 8.08-1.51.55-3.11.85-4.6 1.47-3.87 1.59-6.55 5.13-9.92 7.61-2.44 1.8-5.32 2.42-8.09 3.6a13.14 13.14 0 0 1-4.38 1.29 15.25 15.25 0 0 0-2 .1 7.11 7.11 0 0 0-3.41 2.18c-1.3 1.23-2.56 2.56-3.89 3.74a26.41 26.41 0 0 1-2.33 1.72c-.3.22-2.33 1.4-2.33 1.7-3.34 2.43-7 4.68-9.93 7.63-2.49 2.54-4.21 5.76-6.72 8.27a18.25 18.25 0 0 0-3.1 3.36c-.75 1.27-.35 3-.89 4.46-.43 1.14-1 2.21-1.42 3.36-.5 1.48-.78 3.08-1.16 4.6s-.78 2.93-1.06 4.4c-.23 1.18-.95 2.26-1.06 3.48a6.2 6.2 0 0 0 .19 1.95Z"/><path class="cls-2" d="m468.4 114.35.74 2.09a6.07 6.07 0 0 0 .6 1.38 7.17 7.17 0 0 0 .74.91l1.21 1.31a2.64 2.64 0 0 0 1 .77 2.6 2.6 0 0 0 2.07-.48 14 14 0 0 0 1.65-.93c.37-.28.69-.66 1-1l1.4-1.25c.21-.19 1.4-1 1.4-1.25a25.85 25.85 0 0 0 3.37-3.41c1.3-1.7 2.15-3.7 3.4-5.44s2.9-3.21 4.29-4.86c3.2-3.79 5-8.55 6.34-13.34 1.37-5 2.21-10.45.71-15.46-1.17-3.89-3.66-7.23-6.11-10.49a20.35 20.35 0 0 0-3.21-3.62c-.36-.3-.74-.57-1.08-.89a13.25 13.25 0 0 0-1.28-1.2 13 13 0 0 0-1.7-1l-1.49-.76-.14-.05a.28.28 0 0 0-.17.07c-.39.28-.37.86-.31 1.34l.35 2.93.09.77a4.11 4.11 0 0 0 .13.7 5.31 5.31 0 0 0 .71 1.16 11.09 11.09 0 0 1 1.45 4.87 6.77 6.77 0 0 1 .06 2.2 3.39 3.39 0 0 1-.6 1.39 5.3 5.3 0 0 0-.39.54 6.32 6.32 0 0 0-.41 1.83 21.21 21.21 0 0 1-1.66 5 19.65 19.65 0 0 1-2.91 4.51c-.62.7-1.3 1.33-1.88 2.06a7.75 7.75 0 0 1-.94 1.12 5.51 5.51 0 0 0-1 .87c-.37.51-.35 1.22-.7 1.74a26.1 26.1 0 0 1-1.62 2.28c-.68.81-1.59 1.38-2.32 2.14a9.47 9.47 0 0 1-1.55 1.55 8.53 8.53 0 0 1-3.32.85.43.43 0 0 0-.44.47 8.93 8.93 0 0 0 .14 3c.16.75.42 1.47.61 2.21a24.37 24.37 0 0 1 .58 4.27c0 .39.06.78.06 1.17 0 .89-.12 1.78-.11 2.66a16.61 16.61 0 0 0 1.24 5.27ZM512.76 85.08c-.07-.1-.41-.26-.52-.2a.84.84 0 0 0-.25.28c-.25.41-.79.72-.92 1.19-.56 1.93-2.51 3.82-4 5.16a12.53 12.53 0 0 0-1.55 1.54 24.28 24.28 0 0 0-1.28 2.09 9.14 9.14 0 0 1-2.23 2.41 26.45 26.45 0 0 0-2.45 1.74c-.74.68-1.29 1.57-2.08 2.21a18.62 18.62 0 0 1-2.11 1.3 3.57 3.57 0 0 0-1.63 1.8 4.59 4.59 0 0 0 .73 3.06 21.72 21.72 0 0 1 1.68 2.46 4.33 4.33 0 0 0 .44.75 5.79 5.79 0 0 0 .72.68 8.32 8.32 0 0 1 1.44 1.69 5.82 5.82 0 0 0 4.08-2.82 18 18 0 0 1 2.9-3.9c.55-.53 1.19-1 1.78-1.46a26.61 26.61 0 0 0 5.12-6.19c1.3-2 2.59-4.06 2.77-6.41.25-2.67-1.03-5.24-2.64-7.38ZM455.19 241.6a18.4 18.4 0 0 0-1.07-3.08l-.71-1.74a5.52 5.52 0 0 0-.57-1.14 4.94 4.94 0 0 0-.61-.68 14.47 14.47 0 0 0-2-1.58 3.71 3.71 0 0 1-1.09-1.75 10.57 10.57 0 0 0-2.4-4.14c-1.68-1.45-4.13-1.47-6.35-1.4q-2.91.09-5.82.21c-3.52.14-7.05.3-10.57.48l-2.65.14h-2c-5.61.06-11.24.33-16.86.62l-2.26.12-8.95.47-2.93.15q-7.9.44-15.81 1a41.88 41.88 0 0 0-4.19.81 26.41 26.41 0 0 1-3.45.09 9.76 9.76 0 0 1-2.85-.22 4.14 4.14 0 0 1-1.24-.54 2.67 2.67 0 0 1-.48-.41 1.34 1.34 0 0 0-.2-.21 3.12 3.12 0 0 1-.39-.15l-.08-.05a.6.6 0 0 0-.48-.11.68.68 0 0 0-.32.4 5.82 5.82 0 0 0-.52 1.66c0 .52-.12 1-.17 1.56-.1 1.05-.18 2.1-.22 3.15a23.62 23.62 0 0 0 .49 6.17 6.69 6.69 0 0 0 .92 2.48c.46.61 1.07 1.13 1.52 1.8a9.56 9.56 0 0 0 1.26 1.76c.26.26.43.57.7.82a4.2 4.2 0 0 0 1.78 1c.57.2 1.05.61 1.61.8a4.4 4.4 0 0 0 1.25.19 65.19 65.19 0 0 0 10-.22q1.25-.12 2.49-.3a17.59 17.59 0 0 0 1.92-.2c1.53-.36 3-.84 4.55-1.18q3.58-.8 7.22-1.38c13.43-2.17 27.08-2.29 40.65-2.14a7.44 7.44 0 0 1 3.77.7 7.53 7.53 0 0 1 2.29 2.56l2.4 3.7a1.55 1.55 0 0 0 .81.75 1.42 1.42 0 0 0 .88-.14c.74-.27 1.48-.49 2.22-.71s1.73-.81 2.59-1.15c.48-.18 1-.36 1.44-.56a16.85 16.85 0 0 0 3.67-2.14 2.49 2.49 0 0 0 1.36-2.67 27.94 27.94 0 0 0-.55-3.6ZM424.41 264.52c-.4-.38-1.07-.23-1.59-.23h-1.73c-1.22.05-3.37.08-4.2 1.11a22.68 22.68 0 0 0-2.19 3.43c-1.1 2-2 4.09-2.95 6.16a29.47 29.47 0 0 0-2.23 6.16c-1.33 6.05-4.9 10.9-6.53 16.7q-1.61 5.76-3.22 11.5-4.56 16.22-9.11 32.43c-4 14.39-7.86 28.84-12.13 43.15-.87 2.93-1.38 5.93-2.18 8.86-1 3.53-1.84 7.09-2.79 10.62q-2 7.57-4.23 15.11c-.67 2.31-1.37 4.61-2.14 6.88-.68 2-2.15 5-2.15 7.05q-4.62 15.51-8.43 31.25c-1.3 5.35-2.53 10.68-4 16-.73 2.74-1.47 5.47-2.2 8.2-.37 1.36-.73 2.73-1.1 4.1a16.19 16.19 0 0 0-1 3.68c-.44 1.63-.88 3.26-1.17 4.93-.21 1.22-.34 2.46-.47 3.69s-.3 2.76-.44 4.14c-.3 2.8-1.12 5.41-1.63 8.19a56.44 56.44 0 0 0-.88 8.31 19.69 19.69 0 0 1-.15 2.43c-.15.94-.45 1.84-.59 2.78-.34 2.14.13 4.38-.48 6.46-.18.61-.45 1.19-.58 1.81a7 7 0 0 0-.09 1.89c0 .69-.11 1.37-.09 2.07a10.22 10.22 0 0 0 .34 2.4 1.72 1.72 0 0 0 .25.59 1.87 1.87 0 0 0 .54.42c1.59 1 3.31 2 5.17 1.91a.47.47 0 0 0 .17 0c.12-.06.15-.23.16-.37.08-1-.08-1.91-.06-2.89v-3.42a41.31 41.31 0 0 1 .35-6.67c.2-1.3.51-2.58.72-3.89.43-2.73.36-5.5.56-8.26a25.19 25.19 0 0 1 .53-3.87c.28-1.19.88-2.3 1.12-3.48.2-1 .13-1.33.89-2.06a3.54 3.54 0 0 0 1.22-2.82 53.27 53.27 0 0 1 3.3-15.69c.88-2.4 2.26-4.62 3.08-7s.77-4.8 1.07-7.2a58.83 58.83 0 0 1 1.51-7 12.51 12.51 0 0 1 .82-2.84 7.7 7.7 0 0 0 1.31-2.83c.1-.92-.18-1.84-.13-2.76a3.86 3.86 0 0 1 .76-2.14 7.72 7.72 0 0 0 1.18-1.62 4.16 4.16 0 0 0 .12-1.76 23.26 23.26 0 0 1 1.6-9.94 5.63 5.63 0 0 0 .41-1.26 8.52 8.52 0 0 0 0-1.43 9.46 9.46 0 0 1 1.66-5 11.72 11.72 0 0 0 1-1.72 9.37 9.37 0 0 0 .44-1.81c.22-1.35.31-2.75.55-4.08a46.82 46.82 0 0 1 1.53-5q1.49-4.9 2.94-9.83 3.69-12.45 7-25c1-4 2.23-7.85 3.45-11.76l2-6.48c.5-1.63 1.76-4 1.76-5.67 2.53-8.13 5.31-16.21 7.24-24.51a78.35 78.35 0 0 1 2.21-8.49 85.75 85.75 0 0 0 2.74-9.74c.39-1.72.66-3.44.89-5.17a23.33 23.33 0 0 1 1.56-4.86l1.34-3.58a166.64 166.64 0 0 0 5.46-16.2 79.66 79.66 0 0 1 2.18-7.8c.27-.71.56-1.4.85-2.09a41.71 41.71 0 0 1 2.18-4.64 29.66 29.66 0 0 0 1.59-2.86c.66-1.54.91-3.25 1.61-4.78l.21-.44c.68-1.36 1.59-2.63 2.22-4 .27-.61.37-1.27.65-1.9.38-.84.76-1.68 1.13-2.52.26-.57.6-1 .23-1.54a9.46 9.46 0 0 0-.94-1.51Z"/><path class="cls-2" d="M324.55 608.31a20.72 20.72 0 0 1-1.78 2.06 16.37 16.37 0 0 1-3.08 1.36c-1.3-2.07-1-4.71-.78-7.14a126.88 126.88 0 0 0 .67-13.08c0-1.77 0-3.53.07-5.29s.33-3.4.56-5.09c.92-6.77 1.79-13.54 2.5-20.34.35-3.36.67-6.72.93-10.09.22-2.79.15-5.48.4-8.26.18-2 .15-3.94.21-5.92a148.2 148.2 0 0 1 2.31-19.77l.87-5.35c.38-2.36.76-4.71 1.23-7.06s1.27-4.45 1.64-6.69c.31-1.92.37-3.93.69-5.88q.6-3.54 1.18-7.08c.26-1.58.52-3.16.69-4.74.21-1.88.28-3.77.56-5.64.25-1.68.66-3.33 1.06-5q1.57-6.34 3.14-12.69 1-4.08 2-8.17c.61-2.49 1.69-5.2 1.53-7.79-.36-5.55 2.44-10.81 3.08-16.34.14-1.21.43-2.44.48-3.63a20.3 20.3 0 0 1 .59-4.66c.37-1.26 1-2.43 1.45-3.64a49.91 49.91 0 0 0 2.69-11.27c0-2.73 1.09-5.65 1.77-8.26.17-.64.33-1.28.5-1.93l2.09-7.93a31.94 31.94 0 0 0 1-4 17.49 17.49 0 0 1 .48-2.94c.7-2.4 1.83-4.74 1.91-7.28s1.17-5.2 1.86-7.67c1.5-5.41 3-10.83 4.42-16.26.4-1.53.8-3.06 1.18-4.59a36.92 36.92 0 0 1 .93-4.11c.39-1 .77-2 1.15-3.06.23-.6.45-1.2.66-1.81.53-1.54.94-3.11 1.36-4.68.56-2.12 1.12-4.23 1.67-6.35.72-2.71 1.44-5.42 2-8.15.43-2 .72-4 1.14-5.92a24.56 24.56 0 0 1 .72-2.58 10.13 10.13 0 0 1 1.1-2.21 13.58 13.58 0 0 0 1.34-3.69l.28-.7c.38-1.53.77-3.05 1.15-4.57a38.13 38.13 0 0 1 1.24-3.84 34 34 0 0 1 3.51-7.5c1.09-1.59 2.38-3.06 3.36-4.73a3.45 3.45 0 0 0 .54-2.11 7.33 7.33 0 0 0-.68-2.76 9 9 0 0 0-1.36-2.46c-.28-.33-.59-.61-.9-.91a15.57 15.57 0 0 1-2-2.47 1.77 1.77 0 0 0-.44-.54 1.47 1.47 0 0 0-.45-.23 5.06 5.06 0 0 0-.75-.17 11.54 11.54 0 0 0-1.17-.1 40.18 40.18 0 0 0-8.06.11 18.33 18.33 0 0 1-.1 2.77c-.26 2.41-.74 4.83-1.14 7.24a46.68 46.68 0 0 1-1.69 7.38c-.56 1.65-1.21 3.27-1.77 4.92-.73 2.16-1.3 4.38-1.87 6.58l-1.42 5.21c-.73 2.86-1.47 5.71-2.2 8.56-.59 2.29-1 4.6-1.56 6.89s-.46 4.58-.93 6.84a36.88 36.88 0 0 1-1.55 4 41.57 41.57 0 0 0-1.21 4.67c-.65 3.1-1.11 6.25-2 9.31-.42 1.49-.93 3-1.35 4.45-.5 1.77-.86 3.58-1.23 5.39a16.68 16.68 0 0 1-1.09 3.56 22.13 22.13 0 0 0-1 4.66q-1 5.2-2 10.43c-.5 2.64-1 5.27-1.67 7.86-1 3.74-2.7 7.19-3.57 10.93s-1.16 7.4-2.15 11c-.54 1.95-1.23 3.85-1.63 5.84a11.85 11.85 0 0 0-.45 2.56 10.45 10.45 0 0 1-.59 2.62 1.15 1.15 0 0 0 0 .55c.11.34.54.51.63.85a1 1 0 0 1 0 .46 2.58 2.58 0 0 1-.66 1.48 1.8 1.8 0 0 0-.29.26 1 1 0 0 0-.12.42 19.12 19.12 0 0 0 0 2.51 23.16 23.16 0 0 1-1.18 6.15c-.46 1.57-.91 3.15-1.36 4.72a63.22 63.22 0 0 0-2.5 11.25 27.43 27.43 0 0 1-.19 4 30.07 30.07 0 0 1-1.56 4c-1.38 3.56-1.27 7.56-2.53 11.17a37.8 37.8 0 0 0-1.26 3.57c-.34 1.44-.3 3-.62 4.41-.27 1.16-.76 2.26-1.1 3.4a28.69 28.69 0 0 0-.81 5.06 169.14 169.14 0 0 1-2.77 17.77c-.44 2.12-.49 4.2-.91 6.33l-1.39 7.08c-.21 1.05-.42 2.1-.61 3.16-.34 1.9-.64 3.81-.94 5.72l-1.5 9.65-.63 4q-1.14 7.41-2.3 14.82c-.68 4.36-1.28 8.75-1.59 13.16l-1.24 17.29a29.15 29.15 0 0 1-.47 4.07c-.2.95-.5 1.89-.75 2.83a73.13 73.13 0 0 0-1.85 11.33l-.29 2.62c-.19 1.73-.38 3.46-.49 5.2-.11 2-.12 4-.37 5.92a27.77 27.77 0 0 1-.77 4.76c-.43 1.42-.95 2.95-.46 4.43a6.59 6.59 0 0 0 2.21 2.79 74.88 74.88 0 0 0 10.09 6.8 3.76 3.76 0 0 0 2.22.75 3 3 0 0 0 2-1.34c.16-.25.23-.55.41-.78a3.19 3.19 0 0 1 1.06-.71l.84-.44c.9-.5 1.69-1.36 2.6-1.78a19.54 19.54 0 0 0 2.88-1.13 10.92 10.92 0 0 0 1.65-1.47c2.17-2.23 4.73-4.68 5.7-7.71a20 20 0 0 1 2.17-3.91 31 31 0 0 0 2.26-4.68 17.1 17.1 0 0 0 .77-10.18Z"/><path class="cls-3" d="M486.31 136.69a11.06 11.06 0 0 1-1.17-2.2 8.72 8.72 0 0 0-1.4-2.13 25 25 0 0 1-2.16-3.1c-.37-.75-.59-1.53-1-2.27-.76-1.32-1.93-3.44-3.55-3.83-1-.24-2 .37-3.06.67-1.85.55-4.45 0-6.36-.22-2.48-.26-4.94-.69-7.41-1.08a197.2 197.2 0 0 0-64.68.49c-10.92 1.9-21.88 4.74-32.94 3.9a2.19 2.19 0 0 0-2.48 1.51 11.5 11.5 0 0 0 12.51 14.13c1.93-.23 3.84-1 5.8-.94s3.63.22 5.49.17c3.54-.09 7.08-.31 10.62-.57 1.61-.12 3.21.55 4.79.39 1.42-.15 2.81-.35 4.26-.42.75 0 1.54 0 2.29-.12a23.25 23.25 0 0 1 3.63.1 51.28 51.28 0 0 0 7.84-.15c15.82-2 32-.17 47.93-.31a7.94 7.94 0 0 1 2.84.32c1.58.58 2.53 1.52 4.28 1.49 1.58 0 3.39-.53 4.79.46 2.11 1.49 1.38 5.15 3.36 6.8s4.7.28 6.73-1.08a5.34 5.34 0 0 0 1.71-1.53c1.12-1.79-.1-3.47-.62-5.18a22.75 22.75 0 0 0-2.04-5.3ZM377.58 176.14c-.59 2.14-1.74 4.22-2 6.41a34.83 34.83 0 0 1-1.83 6.27 38.12 38.12 0 0 0-1.44 3.67 16.9 16.9 0 0 0 .35 6.09c.21 1.34 1.42 2.23 2.52 2.93s1.93 1.8 3 2.34c.89.46 2-.06 2.87-.41 1.35-.55 2.16-2.24 2.94-3.44a48.31 48.31 0 0 0 4.31-7.15c.35-.83.74-1.66 1-2.51 1.49-4 1.47-8.32 1.58-12.52a43.61 43.61 0 0 1 .44-6.37c.35-2-.19-4.08-.48-6.07a26 26 0 0 0-2-7.8 27.87 27.87 0 0 0-4.31-5.82c-1.91-2.16-5.68-6.08-8-2.19a4.36 4.36 0 0 0-.76 2.86 7.54 7.54 0 0 0 1.51 2.06 10.58 10.58 0 0 1 1.6 2.63 11.8 11.8 0 0 1 .43 1.31c.84 3.14 1.27 6.51.23 9.61-.86 2.61-1.21 5.41-1.96 8.1ZM451.24 153.35c-.89-.8-2-2.28-3.33-1.81-3 1.07-5 4.32-6.57 6.86l-2.43 3.93a77.57 77.57 0 0 0-9.06 22.08 5.07 5.07 0 0 0-.2 1.59 7 7 0 0 0 .87 2.29 9.81 9.81 0 0 1 .59 2.08c.13.52 1.19 2.42 2 2.11l-.22.08c.23.18.53-.12.65-.38a9.37 9.37 0 0 0 .68-3.54 11.1 11.1 0 0 1 .94-3.07c.7-1.85 1.9-3.21 2.82-4.94 1.17-2.2 1.73-4.67 2.94-6.88.31-.56 1.32-1.79 1.32-2.41l5.19-9.46c.57-1 1.13-2.08 1.71-3.11.76-1.35 3.63-2.65 2.87-4.48a2.8 2.8 0 0 0-.77-.94ZM371.79 97.39a23.75 23.75 0 0 0 .42 5.26 19.67 19.67 0 0 0 2.34 5.41 10.58 10.58 0 0 0 1.23 2.12 4.8 4.8 0 0 0 2.15.74l1 .24a3.89 3.89 0 0 1 1.92.87 2.4 2.4 0 0 0 .57.53c.52.25 1.1-.19 1.56-.54a31.08 31.08 0 0 0 2.79-1.82 17.09 17.09 0 0 0 2.78-2.86 5.41 5.41 0 0 0 .95-4.33c-.13-.52-3.66-.14-4.12-.15a3.12 3.12 0 0 1-2.66-1.26 2.35 2.35 0 0 0-1.83-.72h-.85c-1.26 0-1.08-.85-1.43-1.73s-1.07-1.19-1.27-2c-.29-1.15.06-2.79 0-4-.07-1.39-.18-2.78-.17-4.18a12.38 12.38 0 0 0-1.31-5.2c-.67-1.61-1.48-1.63-3.2-1.86-.2 0-2.45-.14-2.46-.17 1.49 2.56 1.56 5.68 1.58 8.64q-.02 3.53.01 7.01ZM388.67 92.28a71.73 71.73 0 0 0 3 8.63c.84 2.1 1.74 4.27 3.42 5.78.36.32.78.51 1.15.8s.53.74 1 1c.19.08.4.12.59.21s.55.4.85.53a10.06 10.06 0 0 0 1.67.32 4.74 4.74 0 0 0 1.5.13c.74-.06 1.3-.51 2-.62l.59-.09a.65.65 0 0 0 .2 0 .59.59 0 0 0 .23-.24c.87-1.33 1.7-3.09 1.15-4.7-.43-1.26-1.33-1.93-2-3s-.63-2.27-1.16-3.4a7.54 7.54 0 0 0-1.86-2.18c-1.82-1.71-1.73-4.56-1.2-6.87.23-1 .61-2 .8-3 .26-1.37.2-2.79.52-4.14a13.38 13.38 0 0 1 1.26-3c1.37-2.63 2.9-5.18 4.51-7.67q1.23-1.89 2.51-3.77a17.63 17.63 0 0 0 1.88-3.76 12.76 12.76 0 0 1 1.06-2.28 14.83 14.83 0 0 1 1.13-1.51c1.51-1.89 2.85-3.9 4.18-5.93a29 29 0 0 0 2.94-5.23c0-.1.07-.19.11-.29a9 9 0 0 0 .32-5.48 6.44 6.44 0 0 0-.56-1.67.34.34 0 0 0-.21-.2.31.31 0 0 0-.21 0A2.74 2.74 0 0 0 419 42c-.56 1.11-1.14 2.22-1.75 3.3-.31.56-.63 1.11-1 1.66a6.66 6.66 0 0 1-.93 1.05 29.82 29.82 0 0 1-5.32 4.47 39.06 39.06 0 0 0-4.54 2.88 46.6 46.6 0 0 0-6 5.82c-.61.78-.91 1.7-1.55 2.5-.86 1.07-1.81 2.06-2.64 3.16-.7.93-1.14 2-1.83 2.93a42.24 42.24 0 0 0-2.82 3.61 24 24 0 0 0-2.75 14.38c.27 1.52.42 3.02.8 4.52ZM421.32 75.92c.48 2.21 1 4.42 1.45 6.63.2.92.4 1.84.68 2.75a16.54 16.54 0 0 1 .58 2.17 13.39 13.39 0 0 1 0 2.37 31.11 31.11 0 0 0 .91 8.7 6 6 0 0 0 .36 1.08c.23.45.56.83.83 1.26.71 1.19.86 2.69 1.76 3.74a8.75 8.75 0 0 1 1.32 1.48c.19.39.25.84.45 1.22.5.94 1.7 1.25 2.38 2.06a4.26 4.26 0 0 1 .34.49 3.7 3.7 0 0 0 .44.6c.91 1 2.22.63 3.36.46s1.46-.66 2.3-1.52a2.84 2.84 0 0 1 1-.51 2.8 2.8 0 0 0 1.33-1.19 1.32 1.32 0 0 0 .17-.53.58.58 0 0 0-.21-.5 1.36 1.36 0 0 0-.39-.17c-1.39-.53-1.09-3.61-1.21-4.8a6.12 6.12 0 0 0-.22-1.28 6.84 6.84 0 0 0-.5-1.06c-.24-.46-.46-.92-.68-1.38a42.17 42.17 0 0 1-2.32-5.52c-.38-1.23-.65-2.48-.91-3.74a15.4 15.4 0 0 1-.4-2.43 33.19 33.19 0 0 1 .19-4.1c.07-1.24-.11-2.43-.15-3.66a5.58 5.58 0 0 1 1-2.59 46 46 0 0 1 4.07-6.2l10.56-14.31C454.37 49.29 459 43.1 464.6 38a64.35 64.35 0 0 1 11.17-8.09c2-1.17 4.1-2.23 6.07-3.48a8.69 8.69 0 0 0 2-1.42c.55-.64.94-1.38 1.55-2 2.5-2.47 5.94-3.71 8.46-6.16 1.61-1.58 2.74-3.59 4.44-5.08a12.45 12.45 0 0 0 2.07-1.66 12.21 12.21 0 0 0 1.31-3.55 6.85 6.85 0 0 0 .33-1.27 6.82 6.82 0 0 0-.1-1.86l-.45-3a.5.5 0 0 0-.17-.37A.54.54 0 0 0 501 0a4.79 4.79 0 0 0-2.37.77A17.19 17.19 0 0 0 496.71 3c-2.71 3.12-5.22 6.54-9.29 8-1.51.56-3.11.86-4.6 1.47-3.87 1.6-6.55 5.13-9.93 7.62-2.43 1.8-5.32 2.41-8.08 3.59a13.46 13.46 0 0 1-4.39 1.3 17 17 0 0 0-2 .09 7.34 7.34 0 0 0-3.42 2.22c-1.3 1.24-2.55 2.56-3.88 3.75-.71.63-1.56 1.15-2.33 1.71-.3.23-2.34 1.4-2.34 1.71-3.33 2.43-7 4.68-9.92 7.63-2.5 2.53-4.21 5.76-6.73 8.27a17.8 17.8 0 0 0-3.09 3.35c-.75 1.28-.35 3-.89 4.46-.44 1.14-1 2.21-1.42 3.37-.51 1.48-.78 3.08-1.16 4.59s-.78 2.93-1.06 4.4c-.23 1.19-1 2.27-1.06 3.48a6.2 6.2 0 0 0 .2 1.91Z"/><path class="cls-3" d="M463 104.29c.25.7.49 1.4.73 2.09a6.9 6.9 0 0 0 .61 1.39 6.44 6.44 0 0 0 .74.9l1.21 1.32a2.61 2.61 0 0 0 1 .77 2.7 2.7 0 0 0 2.08-.48 14 14 0 0 0 1.65-.93c.37-.29.69-.66 1-1l1.4-1.25c.21-.18 1.4-1 1.4-1.25a25.85 25.85 0 0 0 3.37-3.41c1.3-1.7 2.15-3.7 3.4-5.44s2.9-3.2 4.29-4.85c3.2-3.8 5-8.56 6.33-13.35 1.37-5 2.22-10.44.72-15.45-1.17-3.9-3.66-7.24-6.11-10.49a20.79 20.79 0 0 0-3.22-3.65c-.36-.3-.74-.58-1.08-.89a16.09 16.09 0 0 0-1.28-1.2 13.63 13.63 0 0 0-1.7-1l-1.49-.76a.27.27 0 0 0-.14 0 .35.35 0 0 0-.17.06c-.39.29-.37.86-.32 1.34.12 1 .24 2 .35 2.93 0 .26.07.52.1.78a3.23 3.23 0 0 0 .13.69 4.69 4.69 0 0 0 .71 1.17 11 11 0 0 1 1.45 4.87 7 7 0 0 1 .06 2.19 3.53 3.53 0 0 1-.6 1.39c-.13.18-.28.35-.39.54a6 6 0 0 0-.41 1.83 21.23 21.23 0 0 1-1.67 5 19.14 19.14 0 0 1-2.9 4.52c-.62.69-1.3 1.32-1.88 2a8.54 8.54 0 0 1-.94 1.13 5.53 5.53 0 0 0-1 .87c-.36.51-.34 1.22-.69 1.74a24.24 24.24 0 0 1-1.63 2.28c-.67.8-1.59 1.38-2.31 2.13a10 10 0 0 1-1.55 1.56 8.71 8.71 0 0 1-3.32.85.63.63 0 0 0-.32.12.53.53 0 0 0-.12.35 8.94 8.94 0 0 0 .14 3c.16.74.42 1.46.61 2.2a24.63 24.63 0 0 1 .58 4.27c0 .39.06.79.06 1.18 0 .89-.12 1.77-.11 2.66a16.55 16.55 0 0 0 1.23 5.28ZM507.4 75c-.07-.09-.42-.25-.52-.19a.81.81 0 0 0-.25.27c-.26.41-.79.73-.92 1.19-.56 1.94-2.52 3.83-4 5.16A14.09 14.09 0 0 0 500.2 83c-.5.65-.85 1.4-1.28 2.09a9 9 0 0 1-2.23 2.41 28.48 28.48 0 0 0-2.45 1.74c-.75.69-1.29 1.57-2.08 2.22a18 18 0 0 1-2.11 1.29 3.65 3.65 0 0 0-1.63 1.8 4.59 4.59 0 0 0 .73 3.06 22.65 22.65 0 0 1 1.68 2.46 4.33 4.33 0 0 0 .44.75 5.79 5.79 0 0 0 .71.69 7.81 7.81 0 0 1 1.45 1.69 5.8 5.8 0 0 0 4.08-2.83 18.14 18.14 0 0 1 2.9-3.9c.55-.53 1.19-1 1.78-1.45a26.82 26.82 0 0 0 5.12-6.19c1.3-2 2.59-4.06 2.77-6.41.21-2.68-1.08-5.26-2.68-7.42ZM449.83 231.54a17.48 17.48 0 0 0-1.08-3.07l-.7-1.74a5.06 5.06 0 0 0-.57-1.14 5 5 0 0 0-.62-.68 13.15 13.15 0 0 0-2-1.58 3.68 3.68 0 0 1-1.09-1.75 10.6 10.6 0 0 0-2.4-4.15C439.7 216 437.25 216 435 216l-5.82.2c-3.53.14-7 .31-10.57.48l-2.65.14h-2c-5.62.06-11.25.34-16.86.63l-2.26.12-8.84.43-2.93.15c-5.28.28-10.54.61-15.81 1a36.47 36.47 0 0 0-4.26.85 28.34 28.34 0 0 1-3.45.09 9.73 9.73 0 0 1-2.85-.23 4.11 4.11 0 0 1-1.24-.53 2.79 2.79 0 0 1-.49-.42.73.73 0 0 0-.19-.2 3.12 3.12 0 0 1-.39-.15l-.08-.06a.57.57 0 0 0-.48-.11.66.66 0 0 0-.32.39 5.89 5.89 0 0 0-.52 1.67c-.05.52-.12 1-.17 1.55-.1 1.05-.18 2.11-.22 3.16a23.26 23.26 0 0 0 .49 6.17 6.71 6.71 0 0 0 .92 2.47c.45.62 1.07 1.14 1.51 1.81a10 10 0 0 0 1.27 1.75c.26.26.43.58.69.83a4.32 4.32 0 0 0 1.79 1c.57.2 1 .61 1.61.81a4.79 4.79 0 0 0 1.25.19 65.19 65.19 0 0 0 10-.23c.83-.08 1.66-.18 2.48-.29.66-.09 1.28 0 1.93-.2 1.53-.37 3-.84 4.55-1.18 2.39-.54 4.8-1 7.22-1.38 13.43-2.17 27.08-2.29 40.65-2.15a7.66 7.66 0 0 1 3.77.7A7.56 7.56 0 0 1 435 238l2.4 3.7c.21.31.44.66.81.75a1.59 1.59 0 0 0 .88-.14c.74-.28 1.48-.49 2.22-.72s1.73-.8 2.59-1.14c.48-.19 1-.37 1.44-.57a16.81 16.81 0 0 0 3.67-2.13 3.22 3.22 0 0 0 1.36-1.8 3.17 3.17 0 0 0 0-.87 27.83 27.83 0 0 0-.54-3.54ZM419.05 254.46c-.4-.37-1.07-.22-1.59-.22h-1.73c-1.22 0-3.37.07-4.2 1.1a23.19 23.19 0 0 0-2.19 3.43c-1.1 2-2 4.1-2.95 6.16a29.76 29.76 0 0 0-2.23 6.17c-1.33 6-4.9 10.89-6.53 16.7q-1.61 5.74-3.23 11.5-4.54 16.21-9.1 32.42c-4 14.39-7.86 28.84-12.13 43.15-.87 2.94-1.38 5.93-2.18 8.86-1 3.53-1.84 7.09-2.79 10.63q-2 7.56-4.23 15.1c-.68 2.32-1.37 4.62-2.15 6.89-.67 2-2.14 5-2.14 7q-4.62 15.52-8.43 31.26c-1.3 5.35-2.53 10.67-4 16-.73 2.73-1.47 5.46-2.2 8.19-.37 1.37-.74 2.74-1.1 4.1a16.41 16.41 0 0 0-1 3.69c-.44 1.63-.88 3.26-1.17 4.92-.21 1.23-.34 2.46-.48 3.7s-.29 2.75-.44 4.13c-.29 2.8-1.12 5.42-1.62 8.19a55.38 55.38 0 0 0-.88 8.32 19.81 19.81 0 0 1-.15 2.43c-.15.93-.45 1.84-.6 2.77-.33 2.14.14 4.39-.47 6.46-.18.61-.45 1.19-.58 1.81a6.71 6.71 0 0 0-.09 1.9c0 .69-.11 1.37-.09 2.07a10.14 10.14 0 0 0 .34 2.39 1.72 1.72 0 0 0 .25.59 1.79 1.79 0 0 0 .53.42c1.6 1 3.32 2 5.18 1.91a.29.29 0 0 0 .16 0c.13-.06.16-.22.17-.36.08-1-.08-1.92-.06-2.89v-3.43a43.6 43.6 0 0 1 .35-6.66c.21-1.31.52-2.59.73-3.89.43-2.73.36-5.51.56-8.26a25.19 25.19 0 0 1 .53-3.87c.27-1.19.88-2.3 1.12-3.48.2-1 .13-1.33.88-2.06a3.54 3.54 0 0 0 1.23-2.82 53.51 53.51 0 0 1 3.25-15.67c.89-2.4 2.26-4.63 3.09-7s.77-4.8 1.07-7.19a58.57 58.57 0 0 1 1.51-7.05 12 12 0 0 1 .82-2.83 7.7 7.7 0 0 0 1.31-2.83c.1-.92-.18-1.84-.14-2.77a4 4 0 0 1 .76-2.14 7.61 7.61 0 0 0 1.19-1.61 4.38 4.38 0 0 0 .12-1.77 23.31 23.31 0 0 1 1.6-9.94 5.63 5.63 0 0 0 .41-1.26 9.62 9.62 0 0 0 0-1.42 9.4 9.4 0 0 1 1.66-5 11.33 11.33 0 0 0 1-1.73 8.44 8.44 0 0 0 .43-1.8c.23-1.36.32-2.75.56-4.08a46.29 46.29 0 0 1 1.53-5q1.49-4.9 2.94-9.82 3.69-12.47 7-25c1.05-4 2.24-7.85 3.46-11.76l2-6.48c.51-1.64 1.77-4 1.77-5.67 2.53-8.14 5.31-16.21 7.24-24.52a80.51 80.51 0 0 1 2.2-8.48 84.34 84.34 0 0 0 2.75-9.74c.38-1.72.66-3.44.89-5.18a22.85 22.85 0 0 1 1.56-4.85c.44-1.2.89-2.39 1.34-3.58a168.64 168.64 0 0 0 5.46-16.21 80.45 80.45 0 0 1 2.18-7.8c.26-.7.56-1.39.85-2.08a41.86 41.86 0 0 1 2.18-4.65 28.36 28.36 0 0 0 1.59-2.85c.66-1.55.91-3.26 1.61-4.78a3.55 3.55 0 0 1 .21-.44c.68-1.37 1.58-2.63 2.22-4 .27-.61.37-1.28.65-1.9l1.13-2.52c.26-.58.6-1 .23-1.55a9.46 9.46 0 0 0-.93-1.47Z"/><path class="cls-3" d="M319.19 598.25a19.76 19.76 0 0 1-1.78 2.07 15.72 15.72 0 0 1-3.08 1.35c-1.31-2.06-1-4.71-.78-7.13a130.1 130.1 0 0 0 .67-13.09c0-1.76 0-3.53.07-5.29s.33-3.39.56-5.08c.91-6.77 1.79-13.55 2.5-20.34.35-3.36.67-6.72.93-10.09.22-2.8.15-5.49.4-8.27.18-2 .15-3.94.21-5.91a147.82 147.82 0 0 1 2.31-19.77c.29-1.79.57-3.57.86-5.35.39-2.36.77-4.72 1.24-7.06s1.27-4.46 1.63-6.69c.32-1.93.38-3.93.7-5.89.39-2.36.79-4.72 1.18-7.08.26-1.57.52-3.15.69-4.74.21-1.87.28-3.77.56-5.63.25-1.68.65-3.33 1.06-5q1.58-6.34 3.14-12.69l2-8.16c.61-2.49 1.69-5.21 1.53-7.79-.36-5.56 2.44-10.82 3.08-16.35.14-1.2.43-2.43.48-3.62A20.39 20.39 0 0 1 340 406c.37-1.25 1-2.42 1.45-3.63a51 51 0 0 0 2.69-11.28c0-2.72 1.09-5.64 1.77-8.25l.5-1.93 2.07-8a31.51 31.51 0 0 0 1-4A16.57 16.57 0 0 1 350 366c.7-2.4 1.83-4.74 1.91-7.28s1.17-5.2 1.85-7.67c1.51-5.42 3-10.83 4.43-16.26.4-1.53.79-3.06 1.18-4.59a36.92 36.92 0 0 1 .93-4.11l1.15-3.06c.23-.61.45-1.21.66-1.82.53-1.53.94-3.11 1.36-4.68.56-2.11 1.11-4.23 1.67-6.34.72-2.71 1.44-5.42 2-8.16.43-2 .72-3.95 1.14-5.92a26 26 0 0 1 .72-2.58 9.24 9.24 0 0 1 1.1-2.2 13.35 13.35 0 0 0 1.33-3.69l.18-.72c.39-1.52.77-3 1.16-4.57a38 38 0 0 1 1.24-3.83 33.52 33.52 0 0 1 3.51-7.5c1.09-1.6 2.38-3.06 3.36-4.73a3.55 3.55 0 0 0 .54-2.12 7.32 7.32 0 0 0-.68-2.75 9 9 0 0 0-1.36-2.47c-.28-.32-.59-.6-.9-.9a15.21 15.21 0 0 1-2-2.48 2.09 2.09 0 0 0-.48-.57 1.4 1.4 0 0 0-.46-.22 4.7 4.7 0 0 0-.74-.18c-.39-.05-.78-.08-1.17-.1a41 41 0 0 0-8.07.11 18.28 18.28 0 0 1-.09 2.77c-.27 2.42-.75 4.83-1.14 7.24a47.81 47.81 0 0 1-1.69 7.38c-.56 1.66-1.21 3.28-1.77 4.93-.73 2.16-1.3 4.37-1.87 6.58l-1.34 5.24c-.74 2.85-1.47 5.71-2.2 8.56-.59 2.28-1 4.59-1.56 6.89s-.46 4.58-.93 6.84a36.73 36.73 0 0 1-1.55 3.95 40 40 0 0 0-1.21 4.67c-.65 3.11-1.11 6.26-2 9.31-.42 1.5-.93 3-1.35 4.46-.5 1.77-.87 3.58-1.23 5.38a17.7 17.7 0 0 1-1.09 3.56 22.27 22.27 0 0 0-1 4.66l-2 10.44c-.49 2.63-1 5.27-1.67 7.86-1 3.73-2.69 7.18-3.56 10.92s-1.16 7.41-2.16 11c-.53 1.95-1.22 3.85-1.62 5.83a12 12 0 0 0-.45 2.57 11 11 0 0 1-.59 2.62 1 1 0 0 0 0 .54c.1.35.53.51.63.86a.9.9 0 0 1 0 .46 2.54 2.54 0 0 1-.65 1.47 1.86 1.86 0 0 0-.29.27 1 1 0 0 0-.12.41 21.15 21.15 0 0 0-.06 2.52 23.3 23.3 0 0 1-1.17 6.15q-.69 2.36-1.36 4.71A62.27 62.27 0 0 0 326 427a28.87 28.87 0 0 1-.19 3.95 30.92 30.92 0 0 1-1.56 4c-1.38 3.57-1.27 7.56-2.53 11.18a37.61 37.61 0 0 0-1.26 3.56c-.34 1.45-.3 3-.63 4.42-.26 1.16-.75 2.25-1.09 3.39a27 27 0 0 0-.81 5.06 169.33 169.33 0 0 1-2.77 17.78c-.45 2.11-.49 4.19-.91 6.33-.46 2.36-.93 4.72-1.39 7.07-.21 1.06-.42 2.11-.61 3.16-.35 1.9-.64 3.82-.94 5.73l-1.5 9.64-.63 4-2.3 14.82c-.68 4.36-1.28 8.75-1.59 13.16q-.63 8.64-1.24 17.29a29.32 29.32 0 0 1-.47 4.07c-.21 1-.5 1.88-.76 2.82a73.44 73.44 0 0 0-1.84 11.34l-.29 2.62c-.19 1.73-.38 3.46-.49 5.19-.11 2-.12 4-.37 5.92a28.73 28.73 0 0 1-.77 4.77c-.43 1.42-.95 2.94-.46 4.43a6.57 6.57 0 0 0 2.21 2.79 74.18 74.18 0 0 0 10.09 6.79 3.75 3.75 0 0 0 2.22.76 2.91 2.91 0 0 0 2-1.35c.17-.24.24-.55.42-.78a3.24 3.24 0 0 1 1.06-.71l.84-.44c.9-.49 1.69-1.36 2.59-1.77a17.79 17.79 0 0 0 2.88-1.14 9.54 9.54 0 0 0 1.65-1.46c2.18-2.23 4.74-4.68 5.71-7.72a20.3 20.3 0 0 1 2.17-3.91 30 30 0 0 0 2.25-4.67 17 17 0 0 0 .82-10.16Z"/><path class="cls-4" d="M684.94 279.43h32.94v87.32h-32.94zM829.2 343.04v-8.33h25.27v-23.24H829.2v-8.81h26.89v-23.23h-59.83v87.32h61.37v-23.71H829.2zM652.43 246.07l-13.28 71.66-13.27-71.66h-28.94l-13.28 71.66-13.27-71.66h-37.62l34.89 120.51h31.84l11.91-65.87 11.92 65.87h31.82l34.9-120.51h-37.62zM763 310.56c-9.6-.92-7.3-7.5-2.86-8.66 11.75-3.07 21.27 6.89 21.27 6.89l9.32-23.62s-10.85-6.76-27.57-6.76c-27.71 0-41.41 16.65-40.05 33.44 1.15 14.24 11.84 21.91 30.39 23.24 10.72.76 7.5 7.52 1.7 8.76-11.87 2.56-24.69-7.7-24.69-7.7l-9.32 23.62s12.61 9.23 29.33 9.4c37.88.41 44.25-19.09 42.89-35.89-1.11-14.23-11.86-20.96-30.41-22.72Z"/><path class="cls-5" d="m59.43 354.3 23-102.45h22.09c9 0 17.87 7.83 15.83 21.28h6.8l6.47-29.1H6.47L0 273.13h6.81s8.1-21.28 21.21-21.28h25.65l-22 97.88a14.58 14.58 0 0 1-14.24 11.42l-7.23 1-1 4.6H73l1-4.6-9-1a5.63 5.63 0 0 1-5.57-6.85Z"/><path class="cls-5" d="M146.56 326.07c18.34-4.73 27.19-14 27-27.17-.19-13-12.85-17.22-23-17.22h-52l-1 4.6h8.71a3.51 3.51 0 0 1 3.42 4.27L95 355.57a7.13 7.13 0 0 1-7 5.58l-7.39 1-1 4.6h45.2l1-4.6-6.63-1a4 4 0 0 1-3.93-4.9l6.62-28.82h4.52a6.68 6.68 0 0 1 5.41 3.28c3.15 6.15 6.45 15.59 16.35 32.46a8.09 8.09 0 0 0 6.27 3.58h18.42l.86-2.65c-8.84-7.1-22.38-34.97-27.14-38.03Zm-14.9-3.24H123l8.12-36.55h9.53c4.76 0 12.79 2 12.77 12.62-.08 12.28-8.79 23.93-21.76 23.93ZM347.75 310.82a15.36 15.36 0 0 1-15 12h-11.89l8.24-36.55h16.49a12.25 12.25 0 0 1 12 14.92h4.81l4.36-19.52h-70.17l-1 4.6h8.73a3.5 3.5 0 0 1 3.41 4.26l-14.68 65a7.13 7.13 0 0 1-7 5.58l-7.39 1-1 4.6h45.19l1-4.6-6.64-1a4 4 0 0 1-3.93-4.9l6.5-28.82h11.89a9.86 9.86 0 0 1 9.63 12h4.8l6.41-28.62ZM422 310.82a15.36 15.36 0 0 1-15 12h-11.94l8.24-36.55h16.5a12.25 12.25 0 0 1 11.94 14.92h4.81l4.36-19.52h-70.12l-1 4.6h8.73a3.49 3.49 0 0 1 3.41 4.26l-14.68 65a7.12 7.12 0 0 1-7 5.58l-7.38 1-1 4.6h45.19l1-4.6-6.63-1a4 4 0 0 1-3.94-4.9l6.5-28.82h11.89a9.86 9.86 0 0 1 9.63 12h4.81l6.4-28.62ZM474 291.6a6.82 6.82 0 0 1 6.65-5.32h6.22l1-4.6h-43.53l-1 4.6h7.1a3.5 3.5 0 0 1 3.41 4.26l-14.68 65a7.13 7.13 0 0 1-7 5.58l-7.38 1-1 4.6H469l1-4.6-6.63-1a4 4 0 0 1-3.94-4.9ZM267 353.81l-13.09-72.13H241l-47.69 72.53a17.23 17.23 0 0 1-12.84 7.69l-2.73.25-1 4.6h28.67l1-4.6-1.93-.2a4.59 4.59 0 0 1-3.33-7.12l10.73-15.95H243l2.29 16.25a5.93 5.93 0 0 1-5.19 6.72l-2.67.3-1 4.6h38.25l1-4.6a10.25 10.25 0 0 1-8.68-8.34Zm-52.1-19.53 22.76-35.37 4.76 35.37Z"/><path class="cls-5" d="M540.46 279.43c-36.28 0-60.24 20.18-65.18 44.09-5.06 24.53 10.38 46.16 42.24 45.74 12.3-.17 24-1.95 34-5.95l7.48-21.14h-4.82c-7.62 12.41-19.81 20.84-36 20.83-14.8 0-25.91-17.44-21.4-39.48 4.89-23.92 21.49-39 42.81-39 10.65 0 18.81 6 19.88 20.34h4.82l3.91-19.11c-7.02-4.08-16.35-6.32-27.74-6.32Z"/></svg>